<?xml version="1.0" encoding="UTF-8"?>
<svg xmlns="http://www.w3.org/2000/svg" width="2048" height="1024" viewBox="0 0 2048 1024">
  <defs>
    <clipPath id="meshClip">
      <ellipse cx="1538" cy="540" rx="128" ry="207" transform="rotate(-16 1538 540)"/>
    </clipPath>
    <linearGradient id="softChip" x1="0" x2="1" y1="0" y2="1">
      <stop offset="0" stop-color="#f5f5f5"/>
      <stop offset="0.55" stop-color="#d6d6d6"/>
      <stop offset="1" stop-color="#ffffff"/>
    </linearGradient>
    <radialGradient id="chipGhost" cx="50%" cy="50%" r="50%">
      <stop offset="0" stop-color="#444" stop-opacity="0.24"/>
      <stop offset="0.5" stop-color="#777" stop-opacity="0.12"/>
      <stop offset="1" stop-color="#fff" stop-opacity="0"/>
    </radialGradient>
  </defs>

  <rect width="2048" height="1024" fill="#fff"/>

  <text x="125" y="140" font-family="-apple-system, BlinkMacSystemFont, 'PingFang TC', 'Noto Sans TC', 'Microsoft JhengHei', Arial, sans-serif" font-size="72" font-weight="400" fill="#070707" ><tspan x="125" dy="0">Lifetune 的分層結構</tspan></text>
  <text x="126" y="206" font-family="-apple-system, BlinkMacSystemFont, 'PingFang TC', 'Noto Sans TC', 'Microsoft JhengHei', Arial, sans-serif" font-size="32" font-weight="700" fill="#070707" ><tspan x="126" dy="0">從電路板到黏著層，一層一層拆開看</tspan></text>
  <text x="126" y="258" font-family="-apple-system, BlinkMacSystemFont, 'PingFang TC', 'Noto Sans TC', 'Microsoft JhengHei', Arial, sans-serif" font-size="31" font-weight="400" fill="#070707" ><tspan x="126" dy="0">Lifetune 以被動式矽晶共振結構為核心。當環境電磁場</tspan><tspan x="126" dy="45">接觸晶片表面的微米級蝕刻圖樣時，波會產生繞射、共振</tspan><tspan x="126" dy="45">與相位疊加等物理互動，使局部場的分佈方式被重新安排</tspan><tspan x="126" dy="45">——不需電源，也不影響設備原有的連線功能。</tspan></text>

  
    <circle cx="168" cy="568" r="42" fill="#8e986a"/>
    <text x="168" y="587" text-anchor="middle" font-family="-apple-system, BlinkMacSystemFont, 'PingFang TC', 'Noto Sans TC', 'Microsoft JhengHei', Arial, sans-serif" font-size="62" font-weight="300" fill="#fff">1</text>
    <text x="246" y="560" font-family="-apple-system, BlinkMacSystemFont, 'PingFang TC', 'Noto Sans TC', 'Microsoft JhengHei', Arial, sans-serif" font-size="30" font-weight="400" fill="#070707" ><tspan x="246" dy="0">PCB 印刷電路板</tspan><tspan x="246" dy="39">ENIG 化學鎳金處理</tspan></text>
  
  
    <circle cx="168" cy="704" r="42" fill="#9aafa4"/>
    <text x="168" y="723" text-anchor="middle" font-family="-apple-system, BlinkMacSystemFont, 'PingFang TC', 'Noto Sans TC', 'Microsoft JhengHei', Arial, sans-serif" font-size="62" font-weight="300" fill="#fff">2</text>
    <text x="246" y="713" font-family="-apple-system, BlinkMacSystemFont, 'PingFang TC', 'Noto Sans TC', 'Microsoft JhengHei', Arial, sans-serif" font-size="30" font-weight="400" fill="#070707" ><tspan x="246" dy="0">一顆 C-16-S AIRES 矽晶圓共振晶片</tspan></text>
  
  
    <circle cx="168" cy="831" r="42" fill="#a78376"/>
    <text x="168" y="850" text-anchor="middle" font-family="-apple-system, BlinkMacSystemFont, 'PingFang TC', 'Noto Sans TC', 'Microsoft JhengHei', Arial, sans-serif" font-size="62" font-weight="300" fill="#fff">3</text>
    <text x="246" y="840" font-family="-apple-system, BlinkMacSystemFont, 'PingFang TC', 'Noto Sans TC', 'Microsoft JhengHei', Arial, sans-serif" font-size="30" font-weight="400" fill="#070707" ><tspan x="246" dy="0">Polymer 高分子聚合物</tspan></text>
  
  
    <circle cx="168" cy="957" r="42" fill="#304346"/>
    <text x="168" y="976" text-anchor="middle" font-family="-apple-system, BlinkMacSystemFont, 'PingFang TC', 'Noto Sans TC', 'Microsoft JhengHei', Arial, sans-serif" font-size="62" font-weight="300" fill="#fff">4</text>
    <text x="246" y="966" font-family="-apple-system, BlinkMacSystemFont, 'PingFang TC', 'Noto Sans TC', 'Microsoft JhengHei', Arial, sans-serif" font-size="30" font-weight="400" fill="#070707" ><tspan x="246" dy="0">黏著層</tspan></text>
  

  <g id="diagram" fill="none" stroke-linecap="round" stroke-linejoin="round">
    <g opacity="0.9"><line x1="900" y1="690" x2="1910" y2="100" stroke="#e8e8e8" stroke-width="1.8"/><line x1="932" y1="632" x2="1928" y2="42" stroke="#e8e8e8" stroke-width="1.8"/><line x1="964" y1="574" x2="1946" y2="-16" stroke="#e8e8e8" stroke-width="1.8"/><line x1="996" y1="516" x2="1964" y2="-74" stroke="#e8e8e8" stroke-width="1.8"/><line x1="1028" y1="458" x2="1982" y2="-132" stroke="#e8e8e8" stroke-width="1.8"/><line x1="1060" y1="400" x2="2000" y2="-190" stroke="#e8e8e8" stroke-width="1.8"/><line x1="1092" y1="342" x2="2018" y2="-248" stroke="#e8e8e8" stroke-width="1.8"/><line x1="1124" y1="284" x2="2036" y2="-306" stroke="#e8e8e8" stroke-width="1.8"/></g>

    <g stroke="#303030" stroke-width="1.9">
      <ellipse cx="1038" cy="720" rx="82" ry="185" transform="rotate(-8 1038 720)"/>
      <ellipse cx="1216" cy="650" rx="119" ry="224" transform="rotate(-14 1216 650)"/>
      <ellipse cx="1660" cy="454" rx="126" ry="223" transform="rotate(-13 1660 454)"/>
      <ellipse cx="1790" cy="438" rx="123" ry="220" transform="rotate(-13 1790 438)"/>
    </g>

    <path d="M1376 402 L1464 540 L1379 722 L1288 573 Z" fill="#fff" stroke="#3a3a3a" stroke-width="1.6"/>
    <ellipse cx="1390" cy="560" rx="58" ry="130" fill="url(#chipGhost)" stroke="none" transform="rotate(-15 1390 560)"/>
    <g opacity="0.9">
      <circle cx="1398" cy="555" r="18" fill="none" stroke="#151515" stroke-width="0.8" opacity="0.09"/><circle cx="1398" cy="555" r="33" fill="none" stroke="#151515" stroke-width="0.8" opacity="0.12"/><circle cx="1398" cy="555" r="48" fill="none" stroke="#151515" stroke-width="0.8" opacity="0.15"/><circle cx="1398" cy="555" r="63" fill="none" stroke="#151515" stroke-width="0.8" opacity="0.18"/><circle cx="1398" cy="555" r="78" fill="none" stroke="#151515" stroke-width="0.8" opacity="0.21"/><circle cx="1398" cy="555" r="93" fill="none" stroke="#151515" stroke-width="0.8" opacity="0.24"/><circle cx="1398" cy="555" r="108" fill="none" stroke="#151515" stroke-width="0.8" opacity="0.27"/>
      <circle cx="1352" cy="500" r="3.8" fill="#1f1f1f" opacity="0.18"/><circle cx="1369" cy="500" r="4.6" fill="#1f1f1f" opacity="0.26"/><circle cx="1386" cy="500" r="5.4" fill="#1f1f1f" opacity="0.33999999999999997"/><circle cx="1403" cy="500" r="3.8" fill="#1f1f1f" opacity="0.42"/><circle cx="1420" cy="500" r="4.6" fill="#1f1f1f" opacity="0.18"/><circle cx="1437" cy="500" r="5.4" fill="#1f1f1f" opacity="0.26"/><circle cx="1359" cy="516" r="4.6" fill="#1f1f1f" opacity="0.26"/><circle cx="1376" cy="516" r="5.4" fill="#1f1f1f" opacity="0.33999999999999997"/><circle cx="1393" cy="516" r="3.8" fill="#1f1f1f" opacity="0.42"/><circle cx="1410" cy="516" r="4.6" fill="#1f1f1f" opacity="0.18"/><circle cx="1427" cy="516" r="5.4" fill="#1f1f1f" opacity="0.26"/><circle cx="1444" cy="516" r="3.8" fill="#1f1f1f" opacity="0.33999999999999997"/><circle cx="1352" cy="532" r="5.4" fill="#1f1f1f" opacity="0.33999999999999997"/><circle cx="1369" cy="532" r="3.8" fill="#1f1f1f" opacity="0.42"/><circle cx="1386" cy="532" r="4.6" fill="#1f1f1f" opacity="0.18"/><circle cx="1403" cy="532" r="5.4" fill="#1f1f1f" opacity="0.26"/><circle cx="1420" cy="532" r="3.8" fill="#1f1f1f" opacity="0.33999999999999997"/><circle cx="1437" cy="532" r="4.6" fill="#1f1f1f" opacity="0.42"/><circle cx="1359" cy="548" r="3.8" fill="#1f1f1f" opacity="0.42"/><circle cx="1376" cy="548" r="4.6" fill="#1f1f1f" opacity="0.18"/><circle cx="1393" cy="548" r="5.4" fill="#1f1f1f" opacity="0.26"/><circle cx="1410" cy="548" r="3.8" fill="#1f1f1f" opacity="0.33999999999999997"/><circle cx="1427" cy="548" r="4.6" fill="#1f1f1f" opacity="0.42"/><circle cx="1444" cy="548" r="5.4" fill="#1f1f1f" opacity="0.18"/><circle cx="1352" cy="564" r="4.6" fill="#1f1f1f" opacity="0.18"/><circle cx="1369" cy="564" r="5.4" fill="#1f1f1f" opacity="0.26"/><circle cx="1386" cy="564" r="3.8" fill="#1f1f1f" opacity="0.33999999999999997"/><circle cx="1403" cy="564" r="4.6" fill="#1f1f1f" opacity="0.42"/><circle cx="1420" cy="564" r="5.4" fill="#1f1f1f" opacity="0.18"/><circle cx="1437" cy="564" r="3.8" fill="#1f1f1f" opacity="0.26"/><circle cx="1359" cy="580" r="5.4" fill="#1f1f1f" opacity="0.26"/><circle cx="1376" cy="580" r="3.8" fill="#1f1f1f" opacity="0.33999999999999997"/><circle cx="1393" cy="580" r="4.6" fill="#1f1f1f" opacity="0.42"/><circle cx="1410" cy="580" r="5.4" fill="#1f1f1f" opacity="0.18"/><circle cx="1427" cy="580" r="3.8" fill="#1f1f1f" opacity="0.26"/><circle cx="1444" cy="580" r="4.6" fill="#1f1f1f" opacity="0.33999999999999997"/><circle cx="1352" cy="596" r="3.8" fill="#1f1f1f" opacity="0.33999999999999997"/><circle cx="1369" cy="596" r="4.6" fill="#1f1f1f" opacity="0.42"/><circle cx="1386" cy="596" r="5.4" fill="#1f1f1f" opacity="0.18"/><circle cx="1403" cy="596" r="3.8" fill="#1f1f1f" opacity="0.26"/><circle cx="1420" cy="596" r="4.6" fill="#1f1f1f" opacity="0.33999999999999997"/><circle cx="1437" cy="596" r="5.4" fill="#1f1f1f" opacity="0.42"/>
    </g>

    <g clip-path="url(#meshClip)">
      <ellipse cx="1538" cy="540" rx="128" ry="207" fill="url(#softChip)" opacity="0.28" transform="rotate(-16 1538 540)"/>
      
    <line x1="1288" y1="360" x2="1372" y2="720" stroke="#373737" stroke-width="0.9" opacity="0.62"/>
    <line x1="1790" y1="360" x2="1705" y2="720" stroke="#373737" stroke-width="0.9" opacity="0.62"/>
  
    <line x1="1304" y1="360" x2="1388" y2="720" stroke="#373737" stroke-width="0.9" opacity="0.62"/>
    <line x1="1774" y1="360" x2="1689" y2="720" stroke="#373737" stroke-width="0.9" opacity="0.62"/>
  
    <line x1="1320" y1="360" x2="1404" y2="720" stroke="#373737" stroke-width="0.9" opacity="0.62"/>
    <line x1="1758" y1="360" x2="1673" y2="720" stroke="#373737" stroke-width="0.9" opacity="0.62"/>
  
    <line x1="1336" y1="360" x2="1420" y2="720" stroke="#373737" stroke-width="0.9" opacity="0.62"/>
    <line x1="1742" y1="360" x2="1657" y2="720" stroke="#373737" stroke-width="0.9" opacity="0.62"/>
  
    <line x1="1352" y1="360" x2="1436" y2="720" stroke="#373737" stroke-width="0.9" opacity="0.62"/>
    <line x1="1726" y1="360" x2="1641" y2="720" stroke="#373737" stroke-width="0.9" opacity="0.62"/>
  
    <line x1="1368" y1="360" x2="1452" y2="720" stroke="#373737" stroke-width="0.9" opacity="0.62"/>
    <line x1="1710" y1="360" x2="1625" y2="720" stroke="#373737" stroke-width="0.9" opacity="0.62"/>
  
    <line x1="1384" y1="360" x2="1468" y2="720" stroke="#373737" stroke-width="0.9" opacity="0.62"/>
    <line x1="1694" y1="360" x2="1609" y2="720" stroke="#373737" stroke-width="0.9" opacity="0.62"/>
  
    <line x1="1400" y1="360" x2="1484" y2="720" stroke="#373737" stroke-width="0.9" opacity="0.62"/>
    <line x1="1678" y1="360" x2="1593" y2="720" stroke="#373737" stroke-width="0.9" opacity="0.62"/>
  
    <line x1="1416" y1="360" x2="1500" y2="720" stroke="#373737" stroke-width="0.9" opacity="0.62"/>
    <line x1="1662" y1="360" x2="1577" y2="720" stroke="#373737" stroke-width="0.9" opacity="0.62"/>
  
    <line x1="1432" y1="360" x2="1516" y2="720" stroke="#373737" stroke-width="0.9" opacity="0.62"/>
    <line x1="1646" y1="360" x2="1561" y2="720" stroke="#373737" stroke-width="0.9" opacity="0.62"/>
  
    <line x1="1448" y1="360" x2="1532" y2="720" stroke="#373737" stroke-width="0.9" opacity="0.62"/>
    <line x1="1630" y1="360" x2="1545" y2="720" stroke="#373737" stroke-width="0.9" opacity="0.62"/>
  
    <line x1="1464" y1="360" x2="1548" y2="720" stroke="#373737" stroke-width="0.9" opacity="0.62"/>
    <line x1="1614" y1="360" x2="1529" y2="720" stroke="#373737" stroke-width="0.9" opacity="0.62"/>
  
    <line x1="1480" y1="360" x2="1564" y2="720" stroke="#373737" stroke-width="0.9" opacity="0.62"/>
    <line x1="1598" y1="360" x2="1513" y2="720" stroke="#373737" stroke-width="0.9" opacity="0.62"/>
  
    <line x1="1496" y1="360" x2="1580" y2="720" stroke="#373737" stroke-width="0.9" opacity="0.62"/>
    <line x1="1582" y1="360" x2="1497" y2="720" stroke="#373737" stroke-width="0.9" opacity="0.62"/>
  
    <line x1="1512" y1="360" x2="1596" y2="720" stroke="#373737" stroke-width="0.9" opacity="0.62"/>
    <line x1="1566" y1="360" x2="1481" y2="720" stroke="#373737" stroke-width="0.9" opacity="0.62"/>
  
    <line x1="1528" y1="360" x2="1612" y2="720" stroke="#373737" stroke-width="0.9" opacity="0.62"/>
    <line x1="1550" y1="360" x2="1465" y2="720" stroke="#373737" stroke-width="0.9" opacity="0.62"/>
  
    <line x1="1544" y1="360" x2="1628" y2="720" stroke="#373737" stroke-width="0.9" opacity="0.62"/>
    <line x1="1534" y1="360" x2="1449" y2="720" stroke="#373737" stroke-width="0.9" opacity="0.62"/>
  
    <line x1="1560" y1="360" x2="1644" y2="720" stroke="#373737" stroke-width="0.9" opacity="0.62"/>
    <line x1="1518" y1="360" x2="1433" y2="720" stroke="#373737" stroke-width="0.9" opacity="0.62"/>
  
    <line x1="1576" y1="360" x2="1660" y2="720" stroke="#373737" stroke-width="0.9" opacity="0.62"/>
    <line x1="1502" y1="360" x2="1417" y2="720" stroke="#373737" stroke-width="0.9" opacity="0.62"/>
  
    <line x1="1592" y1="360" x2="1676" y2="720" stroke="#373737" stroke-width="0.9" opacity="0.62"/>
    <line x1="1486" y1="360" x2="1401" y2="720" stroke="#373737" stroke-width="0.9" opacity="0.62"/>
  
    <line x1="1608" y1="360" x2="1692" y2="720" stroke="#373737" stroke-width="0.9" opacity="0.62"/>
    <line x1="1470" y1="360" x2="1385" y2="720" stroke="#373737" stroke-width="0.9" opacity="0.62"/>
  
    <line x1="1624" y1="360" x2="1708" y2="720" stroke="#373737" stroke-width="0.9" opacity="0.62"/>
    <line x1="1454" y1="360" x2="1369" y2="720" stroke="#373737" stroke-width="0.9" opacity="0.62"/>
  
      <rect x="1497" y="475" width="94" height="117" fill="#d7d7d7" opacity="0.46" stroke="#303030" stroke-width="1"/>
      <line x1="1503" y1="475" x2="1503" y2="592" stroke="#282828" stroke-width="0.7" opacity="0.64"/><line x1="1510.5" y1="475" x2="1510.5" y2="592" stroke="#282828" stroke-width="0.7" opacity="0.64"/><line x1="1518" y1="475" x2="1518" y2="592" stroke="#282828" stroke-width="0.7" opacity="0.64"/><line x1="1525.5" y1="475" x2="1525.5" y2="592" stroke="#282828" stroke-width="0.7" opacity="0.64"/><line x1="1533" y1="475" x2="1533" y2="592" stroke="#282828" stroke-width="0.7" opacity="0.64"/><line x1="1540.5" y1="475" x2="1540.5" y2="592" stroke="#282828" stroke-width="0.7" opacity="0.64"/><line x1="1548" y1="475" x2="1548" y2="592" stroke="#282828" stroke-width="0.7" opacity="0.64"/><line x1="1555.5" y1="475" x2="1555.5" y2="592" stroke="#282828" stroke-width="0.7" opacity="0.64"/><line x1="1563" y1="475" x2="1563" y2="592" stroke="#282828" stroke-width="0.7" opacity="0.64"/><line x1="1570.5" y1="475" x2="1570.5" y2="592" stroke="#282828" stroke-width="0.7" opacity="0.64"/><line x1="1578" y1="475" x2="1578" y2="592" stroke="#282828" stroke-width="0.7" opacity="0.64"/><line x1="1585.5" y1="475" x2="1585.5" y2="592" stroke="#282828" stroke-width="0.7" opacity="0.64"/>
      <line x1="1497" y1="481" x2="1591" y2="481" stroke="#282828" stroke-width="0.7" opacity="0.64"/><line x1="1497" y1="488.4" x2="1591" y2="488.4" stroke="#282828" stroke-width="0.7" opacity="0.64"/><line x1="1497" y1="495.8" x2="1591" y2="495.8" stroke="#282828" stroke-width="0.7" opacity="0.64"/><line x1="1497" y1="503.2" x2="1591" y2="503.2" stroke="#282828" stroke-width="0.7" opacity="0.64"/><line x1="1497" y1="510.6" x2="1591" y2="510.6" stroke="#282828" stroke-width="0.7" opacity="0.64"/><line x1="1497" y1="518" x2="1591" y2="518" stroke="#282828" stroke-width="0.7" opacity="0.64"/><line x1="1497" y1="525.4" x2="1591" y2="525.4" stroke="#282828" stroke-width="0.7" opacity="0.64"/><line x1="1497" y1="532.8" x2="1591" y2="532.8" stroke="#282828" stroke-width="0.7" opacity="0.64"/><line x1="1497" y1="540.2" x2="1591" y2="540.2" stroke="#282828" stroke-width="0.7" opacity="0.64"/><line x1="1497" y1="547.6" x2="1591" y2="547.6" stroke="#282828" stroke-width="0.7" opacity="0.64"/><line x1="1497" y1="555" x2="1591" y2="555" stroke="#282828" stroke-width="0.7" opacity="0.64"/><line x1="1497" y1="562.4" x2="1591" y2="562.4" stroke="#282828" stroke-width="0.7" opacity="0.64"/><line x1="1497" y1="569.8" x2="1591" y2="569.8" stroke="#282828" stroke-width="0.7" opacity="0.64"/><line x1="1497" y1="577.2" x2="1591" y2="577.2" stroke="#282828" stroke-width="0.7" opacity="0.64"/><line x1="1497" y1="584.6" x2="1591" y2="584.6" stroke="#282828" stroke-width="0.7" opacity="0.64"/>
    </g>
    <ellipse cx="1538" cy="540" rx="128" ry="207" stroke="#2f2f2f" stroke-width="1.6" transform="rotate(-16 1538 540)"/>
    <g opacity="0.5"><ellipse cx="1538" cy="540" rx="136.64" ry="179.2" fill="none" stroke="#2f2f2f" stroke-width="1.1" transform="rotate(-16 1538 540) translate(-20.16 0)"/><ellipse cx="1538" cy="540" rx="132.9" ry="181.75" fill="none" stroke="#2f2f2f" stroke-width="1.1" transform="rotate(-16 1538 540) translate(-17.099999999999998 0)"/><ellipse cx="1538" cy="540" rx="129.16" ry="184.3" fill="none" stroke="#2f2f2f" stroke-width="1.1" transform="rotate(-16 1538 540) translate(-14.04 0)"/><ellipse cx="1538" cy="540" rx="125.42" ry="186.85" fill="none" stroke="#2f2f2f" stroke-width="1.1" transform="rotate(-16 1538 540) translate(-10.98 0)"/><ellipse cx="1538" cy="540" rx="121.68" ry="189.4" fill="none" stroke="#2f2f2f" stroke-width="1.1" transform="rotate(-16 1538 540) translate(-7.92 0)"/><ellipse cx="1538" cy="540" rx="117.94" ry="191.95" fill="none" stroke="#2f2f2f" stroke-width="1.1" transform="rotate(-16 1538 540) translate(-4.859999999999999 0)"/><ellipse cx="1538" cy="540" rx="114.2" ry="194.5" fill="none" stroke="#2f2f2f" stroke-width="1.1" transform="rotate(-16 1538 540) translate(-1.7999999999999998 0)"/><ellipse cx="1538" cy="540" rx="113.54" ry="194.95" fill="none" stroke="#2f2f2f" stroke-width="1.1" transform="rotate(-16 1538 540) translate(1.26 0)"/><ellipse cx="1538" cy="540" rx="117.28" ry="192.4" fill="none" stroke="#2f2f2f" stroke-width="1.1" transform="rotate(-16 1538 540) translate(4.32 0)"/><ellipse cx="1538" cy="540" rx="121.02" ry="189.85" fill="none" stroke="#2f2f2f" stroke-width="1.1" transform="rotate(-16 1538 540) translate(7.38 0)"/><ellipse cx="1538" cy="540" rx="124.76" ry="187.3" fill="none" stroke="#2f2f2f" stroke-width="1.1" transform="rotate(-16 1538 540) translate(10.44 0)"/><ellipse cx="1538" cy="540" rx="128.5" ry="184.75" fill="none" stroke="#2f2f2f" stroke-width="1.1" transform="rotate(-16 1538 540) translate(13.5 0)"/><ellipse cx="1538" cy="540" rx="132.24" ry="182.2" fill="none" stroke="#2f2f2f" stroke-width="1.1" transform="rotate(-16 1538 540) translate(16.56 0)"/><ellipse cx="1538" cy="540" rx="135.98" ry="179.65" fill="none" stroke="#2f2f2f" stroke-width="1.1" transform="rotate(-16 1538 540) translate(19.62 0)"/></g>

    <g stroke="#2b2b2b" stroke-width="1.9" stroke-dasharray="7 9">
      <line x1="852" y1="684" x2="1035" y2="678"/>
      <line x1="1008" y1="414" x2="1218" y2="412"/>
      <line x1="1390" y1="208" x2="1390" y2="391"/>
      <line x1="1530" y1="765" x2="1530" y2="603"/>
      <line x1="1810" y1="686" x2="1810" y2="528"/>
      <line x1="1670" y1="826" x2="1670" y2="616"/>
    </g>

    
    <circle cx="832" cy="684" r="22" fill="#fff" stroke="#262626" stroke-width="2.2"/>
    <text x="832" y="694" text-anchor="middle" font-family="-apple-system, BlinkMacSystemFont, 'PingFang TC', 'Noto Sans TC', 'Microsoft JhengHei', Arial, sans-serif" font-size="30" font-weight="400" fill="#111">1</text>
  
    
    <circle cx="1006" cy="412" r="22" fill="#fff" stroke="#262626" stroke-width="2.2"/>
    <text x="1006" y="422" text-anchor="middle" font-family="-apple-system, BlinkMacSystemFont, 'PingFang TC', 'Noto Sans TC', 'Microsoft JhengHei', Arial, sans-serif" font-size="30" font-weight="400" fill="#111">2</text>
  
    
    <circle cx="1392" cy="184" r="22" fill="#fff" stroke="#262626" stroke-width="2.2"/>
    <text x="1392" y="194" text-anchor="middle" font-family="-apple-system, BlinkMacSystemFont, 'PingFang TC', 'Noto Sans TC', 'Microsoft JhengHei', Arial, sans-serif" font-size="30" font-weight="400" fill="#111">3</text>
  
    
    <circle cx="1530" cy="785" r="22" fill="#fff" stroke="#262626" stroke-width="2.2"/>
    <text x="1530" y="795" text-anchor="middle" font-family="-apple-system, BlinkMacSystemFont, 'PingFang TC', 'Noto Sans TC', 'Microsoft JhengHei', Arial, sans-serif" font-size="30" font-weight="400" fill="#111">4</text>
  
    
    <circle cx="1812" cy="710" r="22" fill="#fff" stroke="#262626" stroke-width="2.2"/>
    <text x="1812" y="720" text-anchor="middle" font-family="-apple-system, BlinkMacSystemFont, 'PingFang TC', 'Noto Sans TC', 'Microsoft JhengHei', Arial, sans-serif" font-size="30" font-weight="400" fill="#111">5</text>
  
    
    <circle cx="1670" cy="848" r="22" fill="#fff" stroke="#262626" stroke-width="2.2"/>
    <text x="1670" y="858" text-anchor="middle" font-family="-apple-system, BlinkMacSystemFont, 'PingFang TC', 'Noto Sans TC', 'Microsoft JhengHei', Arial, sans-serif" font-size="30" font-weight="400" fill="#111">2</text>
  
  </g>
</svg>
